 http://www.imdb.com/title/tt0145600/

Re-encoded from 
http://thepiratebay.se/torrent/4199567/Brave_New_World_-_1998_-_english

Fixed the aspect ratio, cropped, improved the contrast, and encoded to mp4.  Now the file is smaller and has no perceptible quality loss, and displays properly.

This dystopian depiction of a future none too far away has roots in the book by Aldous Huxley but strays from the original, with a 90's twist all its own.

One of my favorite movies, a great scifi flick. Do enjoy.

Only the VHS PAL source is available to my knowledge, hopefully one day this fine film will be released on DVD and we will have a real dvdrip.

Until then, this will do.  Watchable quality, whose story and plot and the wonderful acting by Lenina easily make up for it.  

Sensual and timely.


Format                                   : MPEG-4
Format profile                           : Base Media
Codec ID                                 : isom
File size                                : 665 MiB
Duration                                 : 1h 29mn
Overall bit rate                         : 1 037 Kbps
Writing application                      : Lavf54.6.100

Video
ID                                       : 1
Format                                   : AVC
Format/Info                              : Advanced Video Codec
Format profile                           : High@L2.0
Format settings, CABAC                   : Yes
Format settings, ReFrames                : 4 frames
Codec ID                                 : avc1
Codec ID/Info                            : Advanced Video Coding
Duration                                 : 1h 29mn
Bit rate                                 : 900 Kbps
Width                                    : 320 pixels
Height                                   : 240 pixels
Display aspect ratio                     : 4:3
Frame rate mode                          : Constant
Frame rate                               : 25.000 fps
Color space                              : YUV
Chroma subsampling                       : 4:2:0
Bit depth                                : 8 bits
Scan type                                : Progressive
Bits/(Pixel*Frame)                       : 0.469
Stream size                              : 577 MiB (87%)
Writing library                          : x264 core 120 r2164 da19765
Encoding settings                        : cabac=1 / ref=3 / deblock=1:0:0 / analyse=0x3:0x113 / me=hex / subme=7 / psy=1 / psy_rd=1.00:0.00 / mixed_ref=1 / me_range=16 / chroma_me=1 / trellis=1 / 8x8dct=1 / cqm=0 / deadzone=21,11 / fast_pskip=1 / chroma_qp_offset=-2 / threads=6 / sliced_threads=0 / nr=0 / decimate=1 / interlaced=0 / bluray_compat=0 / constrained_intra=0 / bframes=3 / b_pyramid=2 / b_adapt=1 / b_bias=0 / direct=1 / weightb=1 / open_gop=0 / weightp=2 / keyint=250 / keyint_min=25 / scenecut=40 / intra_refresh=0 / rc_lookahead=40 / rc=2pass / mbtree=1 / bitrate=900 / ratetol=1.0 / qcomp=0.60 / qpmin=0 / qpmax=69 / qpstep=4 / cplxblur=20.0 / qblur=0.5 / ip_ratio=1.40 / aq=1:1.00

Audio
ID                                       : 2
Format                                   : AAC
Format/Info                              : Advanced Audio Codec
Format profile                           : LC
Codec ID                                 : 40
Duration                                 : 1h 29mn
Bit rate mode                            : Constant
Bit rate                                 : 128 Kbps
Channel(s)                               : 2 channels
Channel positions                        : Front: L R
Sampling rate                            : 44.1 KHz
Compression mode                         : Lossy
Delay relative to video                  : 80ms
Stream size                              : 82.1 MiB (12%)

